<svg xmlns="http://www.w3.org/2000/svg" xmlns:xlink="http://www.w3.org/1999/xlink" width="500" zoomAndPan="magnify" viewBox="0 0 375 374.999991" height="500" preserveAspectRatio="xMidYMid meet" version="1.0"><path fill="#ffffff" d="M 206.667969 73.796875 C 204.15625 72.585938 201.144531 72.921875 198.976562 74.664062 L 127.949219 131.308594 L 94.324219 131.308594 C 90.300781 131.308594 87.046875 134.566406 87.046875 138.585938 L 87.046875 211.375 C 87.046875 215.398438 90.300781 218.65625 94.324219 218.65625 L 127.949219 218.65625 L 198.976562 275.296875 C 200.285156 276.347656 201.890625 276.886719 203.511719 276.886719 C 204.582031 276.886719 205.664062 276.648438 206.667969 276.167969 C 209.191406 274.953125 210.789062 272.40625 210.789062 269.609375 L 210.789062 80.355469 C 210.789062 77.558594 209.191406 75.011719 206.667969 73.796875 Z M 206.667969 73.796875 " fill-opacity="1" fill-rule="nonzero"/><path fill="#ffffff" d="M 220.199219 140.71875 C 217.359375 143.5625 217.359375 148.167969 220.199219 151.011719 C 231.625 162.4375 231.625 187.523438 220.199219 198.953125 C 217.359375 201.792969 217.359375 206.402344 220.199219 209.246094 C 221.621094 210.664062 223.484375 211.375 225.347656 211.375 C 227.210938 211.375 229.070312 210.664062 230.492188 209.246094 C 247.46875 192.273438 247.46875 157.691406 230.492188 140.71875 C 227.652344 137.875 223.042969 137.875 220.199219 140.71875 Z M 220.199219 140.71875 " fill-opacity="1" fill-rule="nonzero"/><path fill="#ffffff" d="M 267.117188 119.117188 C 264.402344 116.148438 259.78125 115.945312 256.832031 118.660156 C 253.867188 121.371094 253.660156 125.972656 256.367188 128.941406 C 266.589844 140.117188 272.851562 157.683594 273.117188 175.925781 C 273.386719 194.582031 267.449219 210.855469 256.832031 220.5625 C 253.867188 223.277344 253.660156 227.878906 256.367188 230.847656 C 257.804688 232.417969 259.773438 233.214844 261.742188 233.214844 C 263.496094 233.214844 265.253906 232.585938 266.652344 231.308594 C 280.335938 218.792969 288 198.53125 287.671875 175.714844 C 287.359375 154.007812 279.675781 132.855469 267.117188 119.117188 Z M 267.117188 119.117188 " fill-opacity="1" fill-rule="nonzero"/></svg>