<svg xmlns="http://www.w3.org/2000/svg" xmlns:xlink="http://www.w3.org/1999/xlink" width="500" zoomAndPan="magnify" viewBox="0 0 375 374.999991" height="500" preserveAspectRatio="xMidYMid meet" version="1.0"><defs><clipPath id="dd83da431e"><path d="M 85.226562 75 L 214 75 L 214 274.3125 L 85.226562 274.3125 Z M 85.226562 75 " clip-rule="nonzero"/></clipPath><clipPath id="d6c4855452"><path d="M 227 146 L 284.726562 146 L 284.726562 204 L 227 204 Z M 227 146 " clip-rule="nonzero"/></clipPath></defs><g clip-path="url(#dd83da431e)"><path fill="#ffffff" d="M 209.21875 76.296875 C 206.839844 75.089844 203.980469 75.304688 201.816406 76.878906 L 125.539062 132.351562 L 92.332031 132.351562 C 88.40625 132.351562 85.226562 135.527344 85.226562 139.457031 L 85.226562 210.492188 C 85.226562 214.421875 88.40625 217.597656 92.332031 217.597656 L 125.539062 217.597656 L 201.816406 273.066406 C 203.050781 273.96875 204.519531 274.429688 205.992188 274.429688 C 207.09375 274.429688 208.199219 274.171875 209.21875 273.652344 C 211.597656 272.445312 213.097656 269.996094 213.097656 267.324219 L 213.097656 82.625 C 213.097656 79.953125 211.597656 77.503906 209.21875 76.296875 Z M 209.21875 76.296875 " fill-opacity="1" fill-rule="nonzero"/></g><g clip-path="url(#d6c4855452)"><path fill="#ffffff" d="M 282.054688 148.640625 C 279.277344 145.867188 274.78125 145.867188 272.007812 148.640625 L 255.71875 164.929688 L 239.429688 148.640625 C 236.65625 145.867188 232.160156 145.867188 229.382812 148.640625 C 226.609375 151.414062 226.609375 155.910156 229.382812 158.683594 L 245.671875 174.972656 L 229.382812 191.261719 C 226.609375 194.039062 226.609375 198.535156 229.382812 201.308594 C 230.773438 202.695312 232.589844 203.390625 234.40625 203.390625 C 236.226562 203.390625 238.042969 202.695312 239.429688 201.308594 L 255.71875 185.019531 L 272.007812 201.308594 C 273.394531 202.695312 275.210938 203.390625 277.03125 203.390625 C 278.847656 203.390625 280.664062 202.695312 282.054688 201.308594 C 284.828125 198.535156 284.828125 194.039062 282.054688 191.261719 L 265.765625 174.972656 L 282.054688 158.683594 C 284.828125 155.910156 284.828125 151.414062 282.054688 148.640625 Z M 282.054688 148.640625 " fill-opacity="1" fill-rule="nonzero"/></g></svg>